<svg width="108" height="20" viewBox="0 0 108 20" fill="none" xmlns="http://www.w3.org/2000/svg">
    <path d="M40.2159 17.2953V4.5H42.0783V17.2953H40.2159Z" fill="#1A1A1A"/>
    <path d="M51.5567 16.1864C50.7102 17.0394 49.6604 17.4659 48.4075 17.4659C47.1546 17.4659 46.0992 17.0394 45.2413 16.1864C44.3948 15.322 43.9715 14.2699 43.9715 13.0302C43.9715 11.7905 44.3948 10.7441 45.2413 9.89108C46.0992 9.02668 47.1546 8.59449 48.4075 8.59449C49.6604 8.59449 50.7102 9.02668 51.5567 9.89108C52.4146 10.7441 52.8435 11.7905 52.8435 13.0302C52.8435 14.2699 52.4146 15.322 51.5567 16.1864ZM48.4075 15.7257C49.1412 15.7257 49.7451 15.4698 50.2191 14.958C50.7045 14.4348 50.9472 13.7922 50.9472 13.0302C50.9472 12.2682 50.7045 11.6312 50.2191 11.1194C49.7451 10.5962 49.1412 10.3346 48.4075 10.3346C47.6625 10.3346 47.0473 10.5962 46.562 11.1194C46.0879 11.6312 45.8508 12.2682 45.8508 13.0302C45.8508 13.7922 46.0879 14.4348 46.562 14.958C47.0473 15.4698 47.6625 15.7257 48.4075 15.7257Z"
          fill="#1A1A1A"/>
    <path d="M59.3051 17.4659C58.7294 17.4659 58.1932 17.3408 57.6966 17.0906C57.2112 16.829 56.8387 16.5162 56.5791 16.1522V17.2953H54.7167V4.5H56.5791V9.90814C56.8387 9.54418 57.2112 9.2371 57.6966 8.98688C58.1932 8.72528 58.7294 8.59449 59.3051 8.59449C60.4564 8.59449 61.4215 9.02668 62.2003 9.89108C62.9905 10.7555 63.3855 11.8018 63.3855 13.0302C63.3855 14.2585 62.9905 15.3049 62.2003 16.1693C61.4215 17.0337 60.4564 17.4659 59.3051 17.4659ZM58.9664 15.7598C59.7001 15.7598 60.304 15.4983 60.7781 14.9751C61.2522 14.4519 61.4892 13.8036 61.4892 13.0302C61.4892 12.2568 61.2522 11.6085 60.7781 11.0853C60.304 10.5621 59.7001 10.3005 58.9664 10.3005C58.2215 10.3005 57.6119 10.5621 57.1379 11.0853C56.6638 11.6085 56.4267 12.2568 56.4267 13.0302C56.4267 13.8036 56.6638 14.4519 57.1379 14.9751C57.6119 15.4983 58.2215 15.7598 58.9664 15.7598Z"
          fill="#1A1A1A"/>
    <path d="M68.7532 17.4659C67.6018 17.4659 66.6311 17.0337 65.841 16.1693C65.0621 15.3049 64.6727 14.2585 64.6727 13.0302C64.6727 11.8018 65.0621 10.7555 65.841 9.89108C66.6311 9.02668 67.6018 8.59449 68.7532 8.59449C69.3288 8.59449 69.8594 8.72528 70.3447 8.98688C70.8301 9.2371 71.2026 9.54418 71.4622 9.90814V8.76509H73.3247V17.2953H71.4622V16.1522C71.2026 16.5162 70.8301 16.829 70.3447 17.0906C69.8594 17.3408 69.3288 17.4659 68.7532 17.4659ZM67.2802 14.9751C67.7542 15.4983 68.3581 15.7598 69.0918 15.7598C69.8255 15.7598 70.4294 15.4983 70.9035 14.9751C71.3775 14.4519 71.6146 13.8036 71.6146 13.0302C71.6146 12.2568 71.3775 11.6085 70.9035 11.0853C70.4294 10.5621 69.8255 10.3005 69.0918 10.3005C68.3581 10.3005 67.7542 10.5621 67.2802 11.0853C66.8061 11.6085 66.569 12.2568 66.569 13.0302C66.569 13.8036 66.8061 14.4519 67.2802 14.9751Z"
          fill="#1A1A1A"/>
    <path d="M75.8478 17.2953V4.5H77.7103V17.2953H75.8478Z" fill="#1A1A1A"/>
    <path d="M32.2815 17.5C30.4868 17.5 28.9912 16.9029 27.7947 15.7087C26.5982 14.5031 26 13.0131 26 11.2388C26 9.46457 26.5926 7.98031 27.7778 6.78609C28.9743 5.58049 30.4699 4.97769 32.2646 4.97769C33.5853 4.97769 34.7648 5.33596 35.8033 6.05249C36.4645 6.50876 36.9953 7.04111 37.3957 7.64956L35.7017 8.76509C35.3856 8.20779 34.9172 7.75853 34.2964 7.41732C33.6868 7.07612 33.0096 6.90551 32.2646 6.90551C31.023 6.90551 30.0014 7.32065 29.2 8.15092C28.3986 8.98119 27.9979 10.0105 27.9979 11.2388C27.9979 12.4672 28.3986 13.4965 29.2 14.3268C30.0014 15.157 31.0286 15.5722 32.2815 15.5722C33.3764 15.5722 34.2738 15.2537 34.9736 14.6168C35.477 14.1587 35.8343 13.5947 36.0457 12.9248H32.2849V10.6396H38.2908C38.4089 12.6919 37.9183 14.3304 36.8192 15.5551C35.6565 16.8517 34.144 17.5 32.2815 17.5Z"
          fill="#1A1A1A"/>
    <path d="M83 17.3302L88.199 5.28064H89.9096L95.1085 17.3302H93.0625L91.7041 14.1736H86.3709L85.0293 17.3302H83ZM89.0375 7.9621L87.1256 12.4086H90.9494L89.0375 7.9621Z"
          fill="#1A1A1A"/>
    <path d="M104.548 10.6092V17.3304H102.64L102.64 6.44052H104.549L104.548 8.7618L106.559 8.76201V10.6094L104.548 10.6092Z"
          fill="#1A1A1A"/>
    <path d="M98.3455 10.6091V17.3302H96.4368L96.4371 8.76163L96.4368 8.7597H98.3455V8.76163L100.606 8.76184V10.6093L98.3455 10.6091Z"
          fill="#1A1A1A"/>
    <path d="M18.4926 18.8935H11.4924C13.7731 16.5657 18.2993 10.8334 18.1581 6.52654C18.0195 2.2968 14.0616 2.311 11.7215 2.99147C10.1639 3.50129 8.55133 4.60043 7.15771 5.82179C5.11842 7.60901 2.80461 11.7334 1.98105 14.3847C-0.073309 21.2624 8.27432 14.2855 10.8245 11.7334C11.8007 10.7564 13.0327 9.19793 13.2362 8.73172C13.6602 7.76005 13.8058 7.08153 12.864 7.10244C10.8981 7.14609 7.7831 11.1548 6.56945 13.3952V7.78577C7.20021 7.63922 8.8694 7.15665 10.3694 6.76588C11.7262 6.41243 13.0264 5.97199 14.3842 6.59967C17.6302 8.10023 14.7973 17.9484 6.80473 18.8935C-0.395517 19.7448 -0.487186 13.2802 0.367009 9.94143C1.0962 6.49833 4.71716 -0.0873669 13.3674 1.11459C22.0177 2.31654 20.3885 13.468 18.4926 18.8935Z"
          fill="#1A1A1A"/>
</svg>
